<?xml version="1.0" encoding="UTF-8"?>
<svg xmlns="http://www.w3.org/2000/svg" xmlns:xlink="http://www.w3.org/1999/xlink" width="400pt" height="136.76pt" viewBox="0 0 400 136.76" version="1.1">
<defs>
<clipPath id="clip1">
  <path d="M 133 103 L 156 103 L 156 136.761719 L 133 136.761719 Z M 133 103 "/>
</clipPath>
<clipPath id="clip2">
  <path d="M 155 103 L 184 103 L 184 136.761719 L 155 136.761719 Z M 155 103 "/>
</clipPath>
<clipPath id="clip3">
  <path d="M 189 103 L 214 103 L 214 136.761719 L 189 136.761719 Z M 189 103 "/>
</clipPath>
<clipPath id="clip4">
  <path d="M 221 103 L 241 103 L 241 136.761719 L 221 136.761719 Z M 221 103 "/>
</clipPath>
<clipPath id="clip5">
  <path d="M 247 103 L 271 103 L 271 136.761719 L 247 136.761719 Z M 247 103 "/>
</clipPath>
<clipPath id="clip6">
  <path d="M 277 103 L 301 103 L 301 136.761719 L 277 136.761719 Z M 277 103 "/>
</clipPath>
<clipPath id="clip7">
  <path d="M 306 103 L 335 103 L 335 136.761719 L 306 136.761719 Z M 306 103 "/>
</clipPath>
<clipPath id="clip8">
  <path d="M 342 103 L 366 103 L 366 136.761719 L 342 136.761719 Z M 342 103 "/>
</clipPath>
<clipPath id="clip9">
  <path d="M 372 103 L 395 103 L 395 136.761719 L 372 136.761719 Z M 372 103 "/>
</clipPath>
<clipPath id="clip10">
  <path d="M 0 80 L 99 80 L 99 136.761719 L 0 136.761719 Z M 0 80 "/>
</clipPath>
</defs>
<g id="surface1">
<path style=" stroke:none;fill-rule:nonzero;fill:rgb(0%,9.799194%,36.099243%);fill-opacity:1;" d="M 156.09375 79.734375 L 156.09375 56.195313 L 150.507813 56.195313 L 150.507813 78.175781 C 150.507813 82.523438 148.515625 84.839844 144.4375 84.839844 C 140.308594 84.839844 138.460938 83.183594 138.460938 78.175781 L 138.460938 56.195313 L 132.824219 56.195313 L 132.824219 79.78125 C 132.824219 85.03125 135.59375 89.472656 144.4375 89.472656 C 151.820313 89.472656 156.09375 85.738281 156.09375 79.734375 "/>
<path style=" stroke:none;fill-rule:nonzero;fill:rgb(0%,9.799194%,36.099243%);fill-opacity:1;" d="M 186.546875 88.90625 L 186.546875 56.191406 L 181.25 56.191406 L 181.347656 71.128906 C 181.347656 74.109375 181.6875 78.789063 181.832031 80.445313 L 181.6875 80.585938 C 181.25 79.070313 179.792969 75.195313 178.238281 72.171875 L 170.078125 56.191406 L 163.765625 56.191406 L 163.765625 88.90625 L 169.253906 88.90625 L 169.058594 73.066406 C 169.011719 70.183594 168.960938 66.734375 168.71875 63.992188 L 168.863281 63.851563 C 169.496094 65.789063 171.339844 69.902344 173.136719 73.542969 L 180.667969 88.90625 L 186.546875 88.90625 "/>
<path style=" stroke:none;fill-rule:nonzero;fill:rgb(0%,9.799194%,36.099243%);fill-opacity:1;" d="M 194.910156 88.90625 L 200.640625 88.90625 L 200.640625 56.191406 L 194.910156 56.191406 Z M 194.910156 88.90625 "/>
<path style=" stroke:none;fill-rule:nonzero;fill:rgb(0%,9.799194%,36.099243%);fill-opacity:1;" d="M 232.617188 56.191406 L 226.789063 56.191406 L 220.621094 74.441406 C 218.96875 79.3125 218.582031 81.296875 218.582031 81.296875 L 218.484375 81.296875 C 218.484375 81.296875 218.097656 78.886719 216.734375 74.722656 L 210.664063 56.191406 L 204.542969 56.191406 L 215.863281 89.046875 L 221.058594 89.046875 "/>
<path style=" stroke:none;fill-rule:nonzero;fill:rgb(0%,9.799194%,36.099243%);fill-opacity:1;" d="M 255.6875 88.90625 L 255.6875 84.273438 L 242.234375 84.273438 L 242.234375 74.0625 L 252.484375 74.0625 L 252.484375 69.570313 L 242.140625 69.570313 L 242.140625 60.636719 L 254.476563 60.636719 L 255.203125 56.191406 L 236.550781 56.191406 L 236.550781 88.90625 "/>
<path style=" stroke:none;fill-rule:evenodd;fill:rgb(0%,9.799194%,36.099243%);fill-opacity:1;" d="M 276.394531 65.601563 C 276.394531 67.300781 275.8125 68.671875 274.890625 69.570313 C 273.871094 70.5625 272.316406 70.941406 269.402344 70.941406 L 266.535156 70.941406 L 266.535156 60.589844 L 269.597656 60.589844 C 274.550781 60.589844 276.394531 62.289063 276.394531 65.601563 M 284.019531 88.90625 L 279.066406 81.058594 C 277.320313 78.316406 275.085938 75.152344 273.871094 74.535156 C 278.921875 74.535156 282.226563 70.613281 282.226563 65.554688 C 282.226563 60.449219 278.824219 56.191406 271.296875 56.191406 L 261.046875 56.191406 L 261.046875 88.90625 L 266.535156 88.90625 L 266.535156 74.773438 C 267.605469 74.820313 268.089844 75.152344 268.722656 75.765625 C 270.566406 77.5625 272.121094 79.832031 274.453125 83.847656 L 277.371094 88.90625 "/>
<path style=" stroke:none;fill-rule:nonzero;fill:rgb(0%,9.799194%,36.099243%);fill-opacity:1;" d="M 311.457031 79.027344 C 311.457031 74.109375 308.058594 71.082031 303.199219 69.710938 L 299.214844 68.578125 C 295.914063 67.632813 294.746094 66.589844 294.746094 64.558594 C 294.746094 61.863281 296.933594 60.117188 300.234375 60.117188 C 302.90625 60.117188 305.042969 60.824219 308.152344 62.621094 L 310.679688 58.792969 C 307.714844 56.757813 303.878906 55.671875 300.039063 55.671875 C 293.289063 55.671875 288.625 59.59375 288.625 65.363281 C 288.625 67.253906 289.109375 68.816406 290.035156 70.136719 C 291.296875 71.984375 293.484375 73.210938 296.542969 74.0625 L 300.140625 75.054688 C 303.585938 76 305.140625 77.511719 305.140625 79.921875 C 305.140625 83.183594 302.664063 85.125 298.535156 85.125 C 295.136719 85.125 292.464844 84.132813 289.453125 82.429688 L 287.316406 86.589844 C 290.617188 88.527344 294.507813 89.519531 298.34375 89.519531 C 306.9375 89.519531 311.457031 84.460938 311.457031 79.027344 "/>
<path style=" stroke:none;fill-rule:nonzero;fill:rgb(0%,9.799194%,36.099243%);fill-opacity:1;" d="M 317.972656 88.90625 L 323.703125 88.90625 L 323.703125 56.191406 L 317.972656 56.191406 Z M 317.972656 88.90625 "/>
<path style=" stroke:none;fill-rule:nonzero;fill:rgb(0%,9.799194%,36.099243%);fill-opacity:1;" d="M 352.585938 56.191406 L 329.320313 56.191406 L 329.320313 60.730469 L 337.820313 60.730469 L 337.820313 88.90625 L 343.40625 88.90625 L 343.40625 60.730469 L 351.859375 60.730469 "/>
<path style=" stroke:none;fill-rule:evenodd;fill:rgb(0%,9.799194%,36.099243%);fill-opacity:1;" d="M 368.144531 75.765625 L 359.886719 75.765625 C 360.664063 73.589844 364.109375 61.820313 364.109375 61.820313 L 364.160156 61.820313 C 364.402344 63.09375 367.804688 75.054688 368.144531 75.765625 M 378.246094 88.90625 L 367.511719 56.144531 L 361.054688 56.144531 L 350.023438 88.90625 L 355.804688 88.90625 L 358.523438 80.304688 L 369.40625 80.304688 L 372.125 88.90625 Z M 361.925781 51.558594 C 361.925781 49.714844 360.46875 48.25 358.671875 48.25 C 356.871094 48.25 355.414063 49.714844 355.414063 51.558594 C 355.414063 53.355469 356.871094 54.871094 358.671875 54.871094 C 360.46875 54.871094 361.925781 53.355469 361.925781 51.558594 M 372.125 51.558594 C 372.125 49.714844 370.621094 48.25 368.871094 48.25 C 367.023438 48.25 365.566406 49.714844 365.566406 51.558594 C 365.566406 53.355469 367.023438 54.871094 368.824219 54.871094 C 370.621094 54.871094 372.125 53.355469 372.125 51.558594 "/>
<path style=" stroke:none;fill-rule:nonzero;fill:rgb(0%,9.799194%,36.099243%);fill-opacity:1;" d="M 400 56.191406 L 376.734375 56.191406 L 376.734375 60.730469 L 385.234375 60.730469 L 385.234375 88.90625 L 390.820313 88.90625 L 390.820313 60.730469 L 399.273438 60.730469 "/>
<g clip-path="url(#clip1)" clip-rule="nonzero">
<path style=" stroke:none;fill-rule:evenodd;fill:rgb(0%,9.799194%,36.099243%);fill-opacity:1;" d="M 149.058594 113.644531 C 149.058594 117.519531 147.164063 119.410156 143.035156 119.410156 L 138.664063 119.410156 L 138.664063 107.921875 L 143.035156 107.921875 C 145.222656 107.921875 146.679688 108.492188 147.699219 109.53125 C 148.621094 110.476563 149.058594 111.847656 149.058594 113.644531 M 155.226563 113.3125 C 155.226563 109.71875 153.578125 106.789063 150.613281 105.085938 C 148.765625 103.996094 146.972656 103.527344 142.0625 103.527344 L 133.125 103.527344 L 133.125 136.242188 L 138.660156 136.242188 L 138.660156 123.757813 L 144.347656 123.757813 C 150.417969 123.757813 155.226563 119.742188 155.226563 113.3125 "/>
</g>
<g clip-path="url(#clip2)" clip-rule="nonzero">
<path style=" stroke:none;fill-rule:evenodd;fill:rgb(0%,9.799194%,36.099243%);fill-opacity:1;" d="M 173.699219 123.097656 L 165.441406 123.097656 C 166.21875 120.921875 169.664063 109.152344 169.664063 109.152344 L 169.714844 109.152344 C 169.957031 110.429688 173.359375 122.390625 173.699219 123.097656 M 183.800781 136.242188 L 173.066406 103.480469 L 166.605469 103.480469 L 155.582031 136.242188 L 161.363281 136.242188 L 164.082031 127.636719 L 174.960938 127.636719 L 177.683594 136.242188 "/>
</g>
<g clip-path="url(#clip3)" clip-rule="nonzero">
<path style=" stroke:none;fill-rule:evenodd;fill:rgb(0%,9.799194%,36.099243%);fill-opacity:1;" d="M 207.15625 120.542969 C 207.15625 127.96875 204.777344 131.796875 198.851563 131.796875 L 195.160156 131.796875 L 195.160156 107.828125 L 198.707031 107.828125 C 201.71875 107.828125 203.46875 108.585938 205.019531 110.664063 C 206.769531 112.980469 207.15625 116.335938 207.15625 120.542969 M 213.378906 119.976563 C 213.378906 114.871094 212.210938 110.949219 209.734375 108.160156 C 206.574219 104.660156 202.835938 103.527344 196.519531 103.527344 L 189.527344 103.527344 L 189.527344 136.242188 L 197.832031 136.242188 C 204.097656 136.242188 207.011719 135.152344 209.828125 131.65625 C 212.113281 128.820313 213.378906 124.941406 213.378906 119.976563 "/>
</g>
<g clip-path="url(#clip4)" clip-rule="nonzero">
<path style=" stroke:none;fill-rule:nonzero;fill:rgb(0%,9.799194%,36.099243%);fill-opacity:1;" d="M 240.359375 136.242188 L 240.359375 131.605469 L 226.90625 131.605469 L 226.90625 121.394531 L 237.152344 121.394531 L 237.152344 116.902344 L 226.808594 116.902344 L 226.808594 107.96875 L 239.148438 107.96875 L 239.875 103.527344 L 221.222656 103.527344 L 221.222656 136.242188 "/>
</g>
<g clip-path="url(#clip5)" clip-rule="nonzero">
<path style=" stroke:none;fill-rule:evenodd;fill:rgb(0%,9.799194%,36.099243%);fill-opacity:1;" d="M 262.761719 112.933594 C 262.761719 114.636719 262.179688 116.007813 261.253906 116.90625 C 260.234375 117.898438 258.679688 118.277344 255.765625 118.277344 L 252.898438 118.277344 L 252.898438 107.921875 L 255.960938 107.921875 C 260.914063 107.921875 262.761719 109.625 262.761719 112.933594 M 270.386719 136.242188 L 265.429688 128.394531 C 263.683594 125.652344 261.449219 122.484375 260.234375 121.871094 C 265.285156 121.871094 268.589844 117.945313 268.589844 112.886719 C 268.589844 107.78125 265.1875 103.527344 257.660156 103.527344 L 247.410156 103.527344 L 247.410156 136.242188 L 252.898438 136.242188 L 252.898438 122.105469 C 253.96875 122.152344 254.453125 122.484375 255.085938 123.097656 C 256.929688 124.894531 258.484375 127.164063 260.816406 131.183594 L 263.730469 136.242188 "/>
</g>
<g clip-path="url(#clip6)" clip-rule="nonzero">
<path style=" stroke:none;fill-rule:evenodd;fill:rgb(0%,9.799194%,36.099243%);fill-opacity:1;" d="M 293.863281 126.453125 C 293.863281 129.386719 292.019531 131.75 287.742188 131.75 L 282.691406 131.75 L 282.691406 121.394531 L 287.597656 121.394531 C 289.199219 121.394531 289.882813 121.441406 290.703125 121.679688 C 292.550781 122.199219 293.863281 124.140625 293.863281 126.453125 M 292.796875 112.414063 C 292.796875 113.265625 292.503906 114.636719 291.484375 115.675781 C 290.414063 116.761719 289.394531 116.902344 287.355469 116.902344 L 282.59375 116.902344 L 282.59375 107.96875 L 286.917969 107.96875 C 288.519531 107.96875 289.394531 108.109375 290.074219 108.347656 C 291.679688 108.914063 292.796875 110.523438 292.796875 112.414063 M 300.03125 126.976563 C 300.03125 123.714844 298.476563 120.023438 292.890625 118.703125 C 296.632813 117.664063 298.671875 115.0625 298.671875 111.5625 C 298.671875 108.820313 297.410156 106.691406 294.882813 105.132813 C 292.792969 103.855469 291.046875 103.527344 286.042969 103.527344 L 277.152344 103.527344 L 277.152344 136.242188 L 286.917969 136.242188 C 295.417969 136.242188 300.03125 133.449219 300.03125 126.976563 "/>
</g>
<g clip-path="url(#clip7)" clip-rule="nonzero">
<path style=" stroke:none;fill-rule:evenodd;fill:rgb(0%,9.799194%,36.099243%);fill-opacity:1;" d="M 328.511719 120.261719 C 328.511719 129.054688 325.9375 132.648438 320.933594 132.648438 C 315.199219 132.648438 313.015625 127.96875 313.015625 119.550781 C 313.015625 111.703125 315.15625 107.257813 320.789063 107.257813 C 326.808594 107.257813 328.511719 112.273438 328.511719 120.261719 M 334.875 119.929688 C 334.875 110.378906 330.308594 103.054688 320.839844 103.054688 C 312.433594 103.054688 306.800781 109.105469 306.800781 119.882813 C 306.800781 129.574219 311.511719 136.757813 321.078125 136.757813 C 329.824219 136.757813 334.875 130.140625 334.875 119.929688 "/>
</g>
<g clip-path="url(#clip8)" clip-rule="nonzero">
<path style=" stroke:none;fill-rule:evenodd;fill:rgb(0%,9.799194%,36.099243%);fill-opacity:1;" d="M 358.097656 112.933594 C 358.097656 114.636719 357.515625 116.007813 356.59375 116.90625 C 355.570313 117.898438 354.019531 118.277344 351.105469 118.277344 L 348.238281 118.277344 L 348.238281 107.921875 L 351.296875 107.921875 C 356.253906 107.921875 358.097656 109.625 358.097656 112.933594 M 365.726563 136.242188 L 360.769531 128.394531 C 359.023438 125.652344 356.785156 122.484375 355.570313 121.871094 C 360.625 121.871094 363.929688 117.945313 363.929688 112.886719 C 363.929688 107.78125 360.527344 103.527344 353 103.527344 L 342.746094 103.527344 L 342.746094 136.242188 L 348.238281 136.242188 L 348.238281 122.105469 C 349.304688 122.152344 349.789063 122.484375 350.425781 123.097656 C 352.269531 124.894531 353.824219 127.164063 356.15625 131.183594 L 359.070313 136.242188 "/>
</g>
<g clip-path="url(#clip9)" clip-rule="nonzero">
<path style=" stroke:none;fill-rule:nonzero;fill:rgb(0%,9.799194%,36.099243%);fill-opacity:1;" d="M 394.980469 136.242188 L 394.980469 103.527344 L 389.6875 103.527344 L 389.785156 118.464844 C 389.785156 121.441406 390.125 126.125 390.269531 127.777344 L 390.125 127.917969 C 389.6875 126.40625 388.230469 122.53125 386.675781 119.503906 L 378.511719 103.523438 L 372.199219 103.523438 L 372.199219 136.242188 L 377.6875 136.242188 L 377.496094 120.402344 C 377.445313 117.515625 377.398438 114.066406 377.152344 111.328125 L 377.300781 111.183594 C 377.929688 113.121094 379.777344 117.234375 381.574219 120.875 L 389.101563 136.242188 L 394.980469 136.242188 "/>
</g>
<path style=" stroke:none;fill-rule:nonzero;fill:rgb(0%,9.799194%,36.099243%);fill-opacity:1;" d="M 76.71875 0 L 56.1875 16.09375 L 56.1875 90.773438 L 100.972656 132.328125 L 76.71875 76.324219 "/>
<path style=" stroke:none;fill-rule:nonzero;fill:rgb(0%,9.799194%,36.099243%);fill-opacity:1;" d="M 103.613281 56.207031 L 84.644531 40.964844 L 84.644531 70.65625 L 103.613281 131.433594 Z M 103.613281 56.207031 "/>
<path style=" stroke:none;fill-rule:nonzero;fill:rgb(0%,9.799194%,36.099243%);fill-opacity:1;" d="M 48.265625 40.171875 L 28.457031 56.207031 L 28.457031 113.210938 L 99.167969 134.160156 L 48.265625 97.175781 "/>
<g clip-path="url(#clip10)" clip-rule="nonzero">
<path style=" stroke:none;fill-rule:nonzero;fill:rgb(0%,9.799194%,36.099243%);fill-opacity:1;" d="M 98.652344 136.496094 L 0 136.496094 L 0 96.382813 L 20.589844 80.289063 L 20.589844 120.460938 "/>
</g>
</g>
</svg>
